# xmcd CD database file
#
# Track frame offsets:
#	150
#	9679
#	12119
#	33368
#	55163
#	69670
#	93125
#	115292
#	133426
#	156218
#	176875
#	196374
#	223083
#	247823
#	271375
#
# Disc length: 3972 seconds
#
# Revision: 6
# Processed by: cddbd v1.5.1PL0 Copyright (c) Steve Scherf et al.
# Submitted via: CDex 1.40PlusFr
#
DISCID=d50f820f
DTITLE=Dalida - Comme si j'etais la
DYEAR=1980
DGENRE=Chanson
TTITLE0=Comme si j'etais la
TTITLE1=Prelude
TTITLE2=Besame Mucho
TTITLE3=Jusqu'au bout du rêve - Avec la participation exeptionnelle de Indra
TTITLE4=Il venait d'avoir 18 ans
TTITLE5=Salma ya Salama
TTITLE6=J'attendrai
TTITLE7=Le Lambeth Walk
TTITLE8=Les Feuilles Mortes
TTITLE9=Rio do Brasil
TTITLE10=Ti Amo
TTITLE11=Generation Dalida - Avec la participation de Chico and the Gipsies
TTITLE12=Mourir sur Scene
TTITLE13=Salma Ya Salama (bonus)
TTITLE14=Laissez-moi dancer (Monday Tuesday) (bonus)
EXTD=YEAR: 1980 ID3G: 102
EXTT0=
EXTT1=
EXTT2=
EXTT3=
EXTT4=
EXTT5=
EXTT6=
EXTT7=
EXTT8=
EXTT9=
EXTT10=
EXTT11=
EXTT12=
EXTT13=
EXTT14=
PLAYORDER=
